<?xml version="1.0" encoding="UTF-8" standalone="no"?>
<!-- Created with Inkscape (http://www.inkscape.org/) -->

<svg
   xmlns:dc="http://purl.org/dc/elements/1.1/"
   xmlns:cc="http://creativecommons.org/ns#"
   xmlns:rdf="http://www.w3.org/1999/02/22-rdf-syntax-ns#"
   xmlns:svg="http://www.w3.org/2000/svg"
   xmlns="http://www.w3.org/2000/svg"
   xmlns:sodipodi="http://sodipodi.sourceforge.net/DTD/sodipodi-0.dtd"
   xmlns:inkscape="http://www.inkscape.org/namespaces/inkscape"
   width="1000"
   height="200"
   viewBox="0 0 264.58333 52.91667"
   version="1.1"
   id="svg8"
   sodipodi:docname="ZingerS Logo.svg"
   inkscape:version="0.92.4 (5da689c313, 2019-01-14)"
   inkscape:export-filename="G:\Documents\ZingerS\Logo\ZingerS Logo.png"
   inkscape:export-xdpi="384"
   inkscape:export-ydpi="384">
  <defs
     id="defs2" />
  <sodipodi:namedview
     id="base"
     pagecolor="#ffffff"
     bordercolor="#666666"
     borderopacity="1.0"
     inkscape:pageopacity="0.0"
     inkscape:pageshadow="2"
     inkscape:zoom="1.205"
     inkscape:cx="350.62241"
     inkscape:cy="100"
     inkscape:document-units="px"
     inkscape:current-layer="layer1"
     showgrid="false"
     units="px"
     showguides="true"
     objecttolerance="10000"
     guidetolerance="10000"
     inkscape:snap-global="false"
     inkscape:window-width="1366"
     inkscape:window-height="706"
     inkscape:window-x="-8"
     inkscape:window-y="-8"
     inkscape:window-maximized="1"
     inkscape:measure-start="0,0"
     inkscape:measure-end="0,0" />
  <metadata
     id="metadata5">
    <rdf:RDF>
      <cc:Work
         rdf:about="">
        <dc:format>image/svg+xml</dc:format>
        <dc:type
           rdf:resource="http://purl.org/dc/dcmitype/StillImage" />
        <dc:title />
      </cc:Work>
    </rdf:RDF>
  </metadata>
  <g
     inkscape:label="Layer 1"
     inkscape:groupmode="layer"
     id="layer1"
     transform="translate(0,-244.08333)">
    <g
       aria-label="ZinGerS"
       style="font-style:normal;font-weight:normal;font-size:58.92749405px;line-height:1.25;font-family:sans-serif;letter-spacing:0px;word-spacing:0px;fill:#ffffff;fill-opacity:1;stroke:#000000;stroke-width:1.5875001;stroke-miterlimit:4;stroke-dasharray:none"
       id="text13"
       transform="matrix(0.88726681,0,0,1.013097,9.7951768,5.4203957)">
      <path
         d="m 12.531578,258.0651 1e-6,-6.70516 21.759913,0.0784 -26.4021928,27.46143 -1.5692221,7.76765 39.3482879,0.0784 1.529992,-7.88535 H 26.32768 l 26.245269,-27.38296 1.569225,-7.9638 -41.610595,0.0393 -1e-6,-6.7054 -21.7600207,10.6086 z"
         style="font-style:normal;font-variant:normal;font-weight:normal;font-stretch:normal;font-family:'Osaka-Sans Serif';-inkscape-font-specification:'Osaka-Sans Serif';fill:#ffffff;stroke:#000000;stroke-width:1.5875001;stroke-miterlimit:4;stroke-dasharray:none"
         id="path51"
         inkscape:connector-curvature="0"
         sodipodi:nodetypes="cccccccccccccc" />
      <path
         d="m 57.18159,255.33475 h 11.53805 l -6.330102,31.62174 h -11.53805 z"
         style="font-style:normal;font-variant:normal;font-weight:normal;font-stretch:normal;font-family:'Osaka-Sans Serif';-inkscape-font-specification:'Osaka-Sans Serif';fill:#ffffff;stroke:#000000;stroke-width:1.5875001;stroke-miterlimit:4;stroke-dasharray:none"
         id="path53"
         inkscape:connector-curvature="0" />
      <path
         d="m 76.200668,252.31357 h 11.624369 l 7.855081,17.4941 2.819772,-14.47292 11.68192,-0.0577 -5.17918,25.92472 c -0.90156,3.91315 -4.1817,5.83137 -9.84043,5.75464 h -4.315978 l -6.445195,-18.01202 -3.682968,18.04079 -11.53805,0.0288 z"
         style="font-style:normal;font-variant:normal;font-weight:normal;font-stretch:normal;font-family:'Osaka-Sans Serif';-inkscape-font-specification:'Osaka-Sans Serif';fill:#ffffff;stroke:#000000;stroke-width:1.5875001;stroke-miterlimit:4;stroke-dasharray:none"
         id="path55"
         inkscape:connector-curvature="0"
         sodipodi:nodetypes="cccccccccccc" />
      <path
         d="m 130.44386,267.78919 c 2.20257,0.0321 4.30063,0.0482 6.29419,0.0482 3.40835,0 5.54798,-0.0161 7.47723,-0.0482 l -4.01073,19.16722 h -23.70507 c -4.7147,0.0861 -7.42566,-2.13286 -6.78711,-5.66816 l 4.3599,-21.59656 c 0.74986,-3.0159 1.24098,-4.75719 5.80893,-4.41463 h 26.79348 l -1.3797,7.27903 -16.94918,-8e-5 c -4.41584,-0.15706 -5.77436,0.12066 -6.26038,2.27417 l -1.92013,10.67878 c -0.66781,3.471 0.14671,4.89563 4.3857,4.91542 l 9.08979,4e-5 1.05913,-5.76227 -6.58283,-0.0482 1.26847,-6.82473 z"
         style="font-style:normal;font-variant:normal;font-weight:normal;font-stretch:normal;font-size:49.38888931px;font-family:'Eras Bold ITC';-inkscape-font-specification:'Eras Bold ITC';stroke-width:1.5875001;stroke-miterlimit:4;stroke-dasharray:none"
         id="path57"
         inkscape:connector-curvature="0"
         sodipodi:nodetypes="csccccccccccccccccc" />
      <path
         d="m 151.38524,255.36352 31.70805,0.0288 -1.15092,5.81218 h -14.44415 l -1.12215,5.72587 14.32905,-0.0288 -1.12216,5.75464 -14.38659,-0.0288 -1.1797,5.81218 q -0.63301,2.87732 2.53204,2.96364 l 11.27909,-0.0575 -1.06461,5.61078 h -17.23514 q -8.71828,0.0288 -7.59612,-5.66832 l 1.75516,-8.66073 h -5.66832 l 1.12216,-5.72587 5.75464,-0.0288 1.1797,-5.84096 -5.78341,0.0288 z"
         style="font-style:normal;font-variant:normal;font-weight:normal;font-stretch:normal;font-family:'Osaka-Sans Serif';-inkscape-font-specification:'Osaka-Sans Serif';fill:#ffffff;stroke:#000000;stroke-width:1.5875001;stroke-miterlimit:4;stroke-dasharray:none"
         id="path59"
         inkscape:connector-curvature="0" />
      <path
         d="m 188.38757,255.33475 h 31.53541 l -3.16505,15.94035 q -0.86319,4.08579 -6.61783,4.05702 l 3.68297,11.65314 -11.5956,-0.0288 -3.65419,-11.39419 -2.67591,-0.0288 -2.33063,11.42296 h -11.50928 l 4.57494,-23.10488 11.62437,0.0288 -1.09338,5.72586 h 8.57441 l 1.75517,-8.60318 -20.25633,0.0288 z"
         style="font-style:normal;font-variant:normal;font-weight:normal;font-stretch:normal;font-family:'Osaka-Sans Serif';-inkscape-font-specification:'Osaka-Sans Serif';fill:#ffffff;stroke:#000000;stroke-width:1.5875001;stroke-miterlimit:4;stroke-dasharray:none"
         id="path61"
         inkscape:connector-curvature="0" />
      <path
         d="m 263.57041,236.99849 v 6.55611 h -24.27586 c -7.75691,0 -12.18569,2.62058 -13.28634,7.86173 l -2.39783,11.91054 c -0.49791,2.43714 3.03988,4.36327 10.61335,5.77838 l 11.39952,2.16199 -1.61166,7.62589 h -23.58522 l -1.49373,7.82242 h 27.67332 c 7.67831,-0.0262 12.04158,-2.58126 13.08981,-7.66519 l 2.39783,-11.98917 c 0.52411,-2.54195 -2.97436,-4.50738 -10.49542,-5.89629 l -11.28161,-2.12268 1.49373,-7.62589 h 21.76011 v 6.52804 l 21.76002,-10.45911 z"
         style="font-style:normal;font-variant:normal;font-weight:normal;font-stretch:normal;font-family:'Osaka-Sans Serif';-inkscape-font-specification:'Osaka-Sans Serif';fill:#ffffff;stroke:#000000;stroke-width:1.5875001;stroke-miterlimit:4;stroke-dasharray:none"
         id="path63"
         inkscape:connector-curvature="0"
         sodipodi:nodetypes="ccccccccccccccsccccc" />
    </g>
  </g>
</svg>
